<?xml version="1.0" encoding="utf-8"?>
<!-- Generator: Adobe Illustrator 19.2.1, SVG Export Plug-In . SVG Version: 6.00 Build 0)  -->
<!DOCTYPE svg PUBLIC "-//W3C//DTD SVG 1.1//EN" "http://www.w3.org/Graphics/SVG/1.1/DTD/svg11.dtd">
<svg version="1.1" id="Food_Icons" xmlns="http://www.w3.org/2000/svg" xmlns:xlink="http://www.w3.org/1999/xlink" x="0px" y="0px"
	 width="70.887px" height="87.683px" viewBox="0 0 70.887 87.683" enable-background="new 0 0 70.887 87.683" xml:space="preserve">
<g id="_x34_">
	<g>
		<path fill="#ECB67C" d="M29.93,82.032L3.74,17.455L2.318,13.95C1.131,11.022,2.674,7.71,5.67,6.709
			c18.822-6.288,39.734-6.555,59.654,0.448c2.971,1.044,4.448,4.382,3.221,7.282l-1.305,3.086L39.929,82.106
			C38.051,86.546,31.742,86.499,29.93,82.032z"/>
	</g>
	<g>
		<path fill="#E1AC77" d="M3.012,15.672L2.314,13.95C1.127,11.022,2.67,7.71,5.666,6.709C24.488,0.421,45.4,0.153,65.321,7.156
			c2.971,1.044,4.448,4.382,3.221,7.282l-0.623,1.474c0,0-17.76-6.176-32.475-6.176S3.012,15.672,3.012,15.672z"/>
	</g>
	<g>
		<path d="M34.949,87.321c-0.02,0-0.039,0-0.058,0c-3.019-0.022-5.598-1.774-6.733-4.571l0,0L0.546,14.669
			c-0.772-1.904-0.724-3.981,0.136-5.848c0.851-1.849,2.449-3.28,4.383-3.926c19.99-6.678,41.048-6.519,60.895,0.457
			c1.913,0.672,3.48,2.122,4.3,3.977c0.82,1.854,0.837,3.988,0.048,5.854L41.691,82.85C40.522,85.612,37.943,87.321,34.949,87.321z
			 M31.703,81.312c0.55,1.356,1.752,2.172,3.216,2.184c1.483,0.017,2.678-0.787,3.248-2.136l28.616-67.666
			c0.386-0.911,0.377-1.912-0.023-2.818c-0.401-0.906-1.136-1.587-2.07-1.915C45.652,2.268,25.452,2.117,6.277,8.523
			c-0.95,0.317-1.703,0.991-2.12,1.898c-0.413,0.898-0.437,1.895-0.065,2.811L31.703,81.312z"/>
	</g>
	<g>
		<path fill="#F8CC77" d="M30.484,82.67L7.162,25.165c-0.088-0.217,0.017-0.466,0.235-0.553c17.448-6.961,37.52-7.365,56.208,0.415
			c0.216,0.09,0.319,0.342,0.228,0.557L39.661,82.738C37.938,86.813,32.147,86.77,30.484,82.67z"/>
	</g>
	<g>
		<path fill="#E9BB6D" d="M8.54,28.697l-1.433-3.532c-0.088-0.217,0.017-0.466,0.235-0.553c17.448-6.961,37.52-7.365,56.208,0.415
			c0.216,0.09,0.319,0.342,0.228,0.557l-1.468,3.472c0,0-13.743-4.883-26.865-4.883S8.54,28.697,8.54,28.697z"/>
	</g>
	<g>
		<path d="M35.091,87.683c-0.018,0-0.036,0-0.055,0c-2.835-0.021-5.259-1.666-6.324-4.293L5.389,25.884
			c-0.235-0.581-0.229-1.219,0.017-1.796c0.246-0.577,0.702-1.022,1.283-1.253c18.645-7.439,39.121-7.289,57.65,0.427
			c0.576,0.239,1.026,0.691,1.264,1.272c0.238,0.581,0.234,1.219-0.01,1.796l-24.17,57.153
			C40.326,86.077,37.902,87.683,35.091,87.683z M32.257,81.951c0.48,1.184,1.529,1.897,2.807,1.906
			c1.254-0.026,2.338-0.688,2.835-1.865l23.582-55.76c-16.77-6.587-35.112-6.723-51.979-0.384L32.257,81.951z"/>
	</g>
	<g>
		<circle fill="#E9785A" cx="43.577" cy="34.671" r="8.129"/>
	</g>
	<g>
		<path d="M43.577,44.713c-5.537,0-10.042-4.505-10.042-10.042s4.505-10.042,10.042-10.042s10.042,4.505,10.042,10.042
			S49.114,44.713,43.577,44.713z M43.577,28.455c-3.428,0-6.216,2.789-6.216,6.216s2.789,6.216,6.216,6.216s6.216-2.789,6.216-6.216
			S47.005,28.455,43.577,28.455z"/>
	</g>
	<g>
		<path fill="#EC6D57" d="M29.699,51.574c0,4.49-3.64,8.129-8.129,8.129c-0.233,0-0.465-0.01-0.693-0.029L15.419,46.26
			c1.491-1.724,3.694-2.814,6.151-2.814C26.06,43.445,29.699,47.085,29.699,51.574z"/>
	</g>
	<g>
		<path d="M21.57,61.617c-0.289,0-0.574-0.012-0.857-0.036c-0.716-0.062-1.337-0.519-1.608-1.185l-5.459-13.414
			c-0.271-0.666-0.146-1.428,0.325-1.972c1.91-2.209,4.68-3.476,7.599-3.476c5.537,0,10.042,4.505,10.042,10.042
			S27.107,61.617,21.57,61.617z M17.675,46.73l4.49,11.033c3.15-0.3,5.622-2.961,5.622-6.188c0-3.428-2.789-6.216-6.216-6.216
			C20.142,45.358,18.771,45.849,17.675,46.73z"/>
	</g>
	<g>
		<path fill="#E9785A" d="M42.726,75.491c-3.745-0.727-6.572-4.023-6.572-7.98c0-4.49,3.64-8.129,8.129-8.129
			c1.684,0,3.248,0.512,4.545,1.388L42.726,75.491z"/>
	</g>
	<g>
		<path d="M42.727,77.404c-0.121,0-0.243-0.011-0.365-0.035c-4.705-0.912-8.12-5.058-8.12-9.857c0-5.537,4.505-10.042,10.042-10.042
			c2.012,0,3.954,0.594,5.616,1.716c0.753,0.509,1.044,1.478,0.696,2.318l-6.102,14.721C44.193,76.948,43.488,77.404,42.727,77.404z
			 M44.284,61.294c-3.428,0-6.216,2.789-6.216,6.217c0,2.447,1.433,4.619,3.564,5.625l4.758-11.477
			C45.72,61.419,45.01,61.294,44.284,61.294z"/>
	</g>
</g>
</svg>
